<?xml version="1.0" encoding="utf-8"?>
<!-- Generator: Adobe Illustrator 26.0.2, SVG Export Plug-In . SVG Version: 6.00 Build 0)  -->
<svg version="1.1" id="outline" xmlns="http://www.w3.org/2000/svg" xmlns:xlink="http://www.w3.org/1999/xlink" x="0px" y="0px"
	 viewBox="0 0 430 430" style="enable-background:new 0 0 430 430;" xml:space="preserve">
<style type="text/css">
	.st0{fill:url(#SVGID_1_);}
	.st1{fill:url(#SVGID_00000152222349533507874550000007477313650133871804_);}
	.st2{fill:url(#SVGID_00000180331162689960293650000009555805787674921103_);}
	.st3{fill:url(#SVGID_00000111177343910779193800000007545481357584811703_);}
	.st4{fill:url(#SVGID_00000122683607757406652940000018111752574308494750_);}
	.st5{fill:url(#SVGID_00000060732753313081558930000005449262910586046896_);}
	.st6{fill:url(#SVGID_00000113324026288646798160000017242312433317351809_);}
	.st7{fill:url(#SVGID_00000078749128939040420900000014281871826717238714_);}
	.st8{fill:url(#SVGID_00000041273630565641890310000016784823928268875702_);}
	.st9{fill:url(#SVGID_00000018238980256568960410000000690393710022480533_);}
	.st10{fill:url(#SVGID_00000046340093108208278610000010031400773604635793_);}
	.st11{fill:url(#SVGID_00000143605915685178380460000003654629752143304347_);}
	.st12{fill:url(#SVGID_00000061469389999585509500000010409429285756911029_);}
	.st13{fill:url(#SVGID_00000155851411216521120860000003139550593825742232_);}
	.st14{fill:url(#SVGID_00000110462036454630816850000010236113509376054686_);}
	.st15{fill:url(#SVGID_00000140729175875527219210000010148408071629038483_);}
	.st16{fill:url(#SVGID_00000008834101730296980500000005444435707994523530_);}
	.st17{fill:url(#SVGID_00000111904835440799731950000003679115486548653719_);}
	.st18{fill:url(#SVGID_00000067195520960035001980000009896847792364869259_);}
	.st19{fill:url(#SVGID_00000157283278010349434330000000500309629993012642_);}
	.st20{fill:url(#SVGID_00000137121503211848618940000000153230591495622544_);}
	.st21{fill:url(#SVGID_00000152966723101805041920000002503834994854860951_);}
	.st22{fill:url(#SVGID_00000008143484929379057980000018248836214533211324_);}
	.st23{fill:url(#SVGID_00000026884847818213737130000017439564548616060319_);}
	.st24{fill:url(#SVGID_00000103234902618801789860000002796276075504132260_);}
	.st25{fill:url(#SVGID_00000179617811812041362580000005058022667971072409_);}
	.st26{fill:url(#SVGID_00000049922784964388737030000007294296468316288642_);}
	.st27{fill:url(#SVGID_00000155137855635783635420000004036749761952787625_);}
	.st28{fill:url(#SVGID_00000033358600536694815950000008509991839192454308_);}
	.st29{fill:url(#SVGID_00000134239784562490242640000015478548682188754857_);}
	.st30{fill:url(#SVGID_00000080909798663869073990000017360308020056592519_);}
	.st31{fill:url(#SVGID_00000128462912574698115670000002306381764794606988_);}
	.st32{fill:url(#SVGID_00000119089740980086281110000006241898806334888121_);}
	.st33{fill:url(#SVGID_00000124859711314356463540000015029006526400433586_);}
	.st34{fill:url(#SVGID_00000153685799110429391770000017262713510211961535_);}
	.st35{fill:url(#SVGID_00000183233130167335916320000012103259129374313108_);}
	.st36{fill:url(#SVGID_00000047771916804399443490000003134056079736661948_);}
	.st37{fill:url(#SVGID_00000039855575879484074700000002278667379226944900_);}
	.st38{fill:url(#SVGID_00000062174458797019966580000013208560199349368479_);}
	.st39{fill:url(#SVGID_00000008151209693728871530000011308692401484927630_);}
	.st40{fill:url(#SVGID_00000137128555903972478160000014827291353362132114_);}
	.st41{fill:url(#SVGID_00000052789787561664874550000017393446069837848209_);}
	.st42{fill:url(#SVGID_00000011016650803899243110000005675827323488797329_);}
	.st43{fill:url(#SVGID_00000032613869394059030290000015105711748578927249_);}
	.st44{fill:url(#SVGID_00000012436228921332583160000010702813977653952391_);}
	.st45{fill:url(#SVGID_00000151524812895783075850000013673756695054921869_);}
	.st46{fill:url(#SVGID_00000047751888052419934950000003700998852188718761_);}
	.st47{fill:url(#SVGID_00000041277305852857914510000015340671346254872755_);}
	.st48{fill:url(#SVGID_00000043447014573585825360000017501062958454417546_);}
	.st49{fill:url(#SVGID_00000101103129733803843330000008570240382245604531_);}
	.st50{fill:url(#SVGID_00000076591425134562886260000013655945255290729901_);}
	.st51{fill:url(#SVGID_00000168831034838414929690000009211451869725369728_);}
	.st52{fill:url(#SVGID_00000120559291486998839230000000372933543556652936_);}
	.st53{fill:url(#SVGID_00000103224698191869581620000010839117273771318174_);}
	.st54{fill:url(#SVGID_00000116220002145404275740000001923571861510803895_);}
	.st55{fill:url(#SVGID_00000167375680397171221920000001275894876771327617_);}
	.st56{fill:url(#SVGID_00000131362364795364155660000010753774026176654982_);}
	.st57{fill:url(#SVGID_00000003806312379560595260000009958022383041188531_);}
	.st58{fill:url(#SVGID_00000111186472566717872870000012297658041438634676_);}
	.st59{fill:url(#SVGID_00000047022512767984014760000015775685466594917551_);}
	.st60{fill:url(#SVGID_00000145035071850749005140000005172722069761245096_);}
	.st61{fill:url(#SVGID_00000111873144642377230840000012394676122794380714_);}
	.st62{fill:url(#SVGID_00000041275549070213655420000010400547319055932044_);}
	.st63{fill:url(#SVGID_00000075145030079998543220000011177477396110960006_);}
</style>
<linearGradient id="SVGID_1_" gradientUnits="userSpaceOnUse" x1="37.5979" y1="104.3224" x2="325.6775" y2="392.4019">
	<stop  offset="0" style="stop-color:#cb5eee"/>
	<stop  offset="1" style="stop-color:#4be1ec"/>
</linearGradient>
<path class="st0" d="M363.36,346.96c-0.05-0.49-0.13-0.98-0.22-1.46c-0.1-0.48-0.22-0.95-0.36-1.42c-0.14-0.47-0.31-0.93-0.5-1.38
	c-0.18-0.45-0.4-0.9-0.62-1.33c-0.23-0.43-0.49-0.86-0.76-1.26c-0.27-0.41-0.56-0.81-0.87-1.19c-0.31-0.38-0.64-0.75-0.99-1.09
	c-0.35-0.35-0.72-0.68-1.1-0.99c-0.37-0.31-0.77-0.61-1.18-0.88c-0.41-0.27-0.83-0.52-1.26-0.75c-0.43-0.23-0.88-0.44-1.33-0.63
	c-0.45-0.18-0.92-0.35-1.38-0.49c-0.47-0.15-0.95-0.27-1.43-0.36c-0.48-0.1-0.97-0.17-1.45-0.22c-0.33-0.03-0.67-0.04-1-0.05
	l-43.17-107.93c0.32-0.33,0.63-0.67,0.93-1.02c0.3-0.38,0.6-0.78,0.87-1.18c0.27-0.41,0.52-0.83,0.75-1.27
	c0.23-0.43,0.44-0.87,0.63-1.32c0.19-0.45,0.35-0.92,0.49-1.38c0.15-0.47,0.27-0.95,0.37-1.43c0.09-0.48,0.17-0.97,0.21-1.45
	c0.05-0.49,0.08-0.99,0.08-1.48c0-3.95-1.6-7.82-4.4-10.6c-3.13-3.14-7.64-4.78-12.08-4.33c-0.48,0.05-0.97,0.13-1.45,0.22
	c-0.48,0.1-0.96,0.22-1.43,0.36c-0.46,0.15-0.93,0.31-1.38,0.5c-0.45,0.19-0.89,0.4-1.33,0.63c-0.43,0.23-0.85,0.48-1.26,0.75
	c-0.41,0.27-0.8,0.56-1.18,0.87c-0.38,0.32-0.75,0.65-1.1,1c-0.34,0.34-0.68,0.71-0.99,1.09c-0.31,0.38-0.6,0.78-0.87,1.18
	c-0.27,0.41-0.53,0.83-0.75,1.27c-0.19,0.35-0.35,0.7-0.51,1.06H148.73c-0.74-1.71-1.79-3.28-3.12-4.6
	c-2.69-2.7-6.39-4.27-10.2-4.38L92.24,92.09c0.32-0.32,0.63-0.66,0.92-1.01c0.31-0.38,0.61-0.78,0.88-1.19
	c0.27-0.4,0.52-0.83,0.75-1.26c0.23-0.43,0.44-0.87,0.63-1.33c0.18-0.45,0.35-0.91,0.49-1.38c0.15-0.46,0.27-0.94,0.36-1.42
	c0.1-0.48,0.17-0.97,0.22-1.46c0.05-0.49,0.08-0.98,0.08-1.47s-0.03-0.99-0.08-1.48c-0.05-0.48-0.12-0.97-0.22-1.45
	c-0.09-0.48-0.21-0.96-0.36-1.43c-0.14-0.46-0.31-0.93-0.49-1.38c-0.19-0.45-0.4-0.9-0.63-1.33c-0.23-0.43-0.48-0.85-0.75-1.26
	c-0.27-0.41-0.57-0.81-0.88-1.18c-0.31-0.38-0.64-0.75-0.99-1.1c-0.34-0.35-0.71-0.68-1.09-0.99c-0.38-0.31-0.78-0.6-1.19-0.87
	c-0.4-0.27-0.83-0.53-1.26-0.76c-0.43-0.23-0.88-0.44-1.33-0.62c-0.45-0.19-0.91-0.36-1.38-0.5c-0.47-0.14-0.94-0.26-1.42-0.36
	c-0.48-0.1-0.97-0.17-1.46-0.22c-0.98-0.1-1.97-0.1-2.95,0c-0.48,0.05-0.97,0.12-1.45,0.22c-0.48,0.1-0.96,0.22-1.43,0.36
	c-0.46,0.14-0.93,0.31-1.38,0.5c-0.45,0.18-0.9,0.39-1.33,0.62c-0.43,0.23-0.85,0.49-1.26,0.76c-0.41,0.27-0.81,0.56-1.18,0.87
	c-0.38,0.31-0.75,0.64-1.1,0.99c-0.35,0.35-0.68,0.72-0.99,1.1c-0.31,0.37-0.6,0.77-0.87,1.18c-0.27,0.41-0.53,0.83-0.76,1.26
	c-0.23,0.43-0.44,0.88-0.62,1.33c-0.19,0.45-0.36,0.92-0.5,1.38c-0.14,0.47-0.26,0.95-0.36,1.43c-0.1,0.48-0.17,0.97-0.22,1.45
	c-0.05,0.49-0.07,0.99-0.07,1.48s0.02,0.98,0.07,1.47c0.05,0.49,0.12,0.98,0.22,1.46c0.1,0.48,0.22,0.96,0.36,1.42
	c0.14,0.47,0.31,0.93,0.5,1.38c0.18,0.46,0.39,0.9,0.62,1.33c0.23,0.43,0.49,0.86,0.76,1.26c0.27,0.41,0.56,0.81,0.87,1.19
	c0.31,0.38,0.64,0.75,0.99,1.09c0.35,0.35,0.72,0.68,1.1,1c0.37,0.3,0.77,0.6,1.18,0.87c0.41,0.27,0.83,0.52,1.26,0.75
	c0.43,0.23,0.88,0.44,1.33,0.63c0.45,0.18,0.92,0.35,1.38,0.49c0.47,0.15,0.95,0.27,1.43,0.36c0.48,0.1,0.97,0.17,1.45,0.22
	c0.33,0.03,0.67,0.04,1.01,0.05l43.19,107.98c-2.73,2.77-4.29,6.58-4.29,10.48c0,3.95,1.6,7.82,4.4,10.61
	c0.34,0.34,0.71,0.68,1.09,0.99c0.38,0.31,0.78,0.6,1.19,0.87c0.4,0.27,0.83,0.52,1.26,0.75c0.43,0.23,0.87,0.44,1.33,0.63
	c0.45,0.19,0.91,0.35,1.38,0.5c0.46,0.14,0.94,0.26,1.42,0.36c0.48,0.09,0.97,0.17,1.46,0.22c0.49,0.04,0.98,0.07,1.47,0.07
	s0.99-0.03,1.48-0.07c0.48-0.05,0.97-0.13,1.45-0.22c0.48-0.1,0.96-0.22,1.43-0.36c0.46-0.15,0.93-0.31,1.38-0.5
	c0.45-0.19,0.9-0.4,1.33-0.63c0.43-0.23,0.85-0.48,1.26-0.75c0.41-0.27,0.8-0.56,1.18-0.87c0.38-0.31,0.75-0.65,1.1-0.99
	c0.34-0.35,0.68-0.72,0.99-1.1c0.31-0.38,0.6-0.78,0.87-1.18c0.27-0.41,0.53-0.83,0.76-1.27c0.18-0.35,0.35-0.7,0.51-1.06h132.6
	c0.74,1.7,1.79,3.28,3.12,4.61c2.68,2.68,6.35,4.24,10.14,4.37l43.17,107.93c-0.32,0.32-0.63,0.66-0.93,1.01
	c-0.3,0.38-0.6,0.78-0.87,1.19c-0.27,0.4-0.52,0.83-0.75,1.26c-0.18,0.34-0.35,0.7-0.5,1.06H148.66c-0.16-0.36-0.32-0.72-0.5-1.06
	c-0.23-0.43-0.48-0.86-0.75-1.26c-0.27-0.41-0.56-0.81-0.87-1.19c-0.32-0.38-0.65-0.75-1-1.09c-0.34-0.35-0.71-0.68-1.09-0.99
	c-0.38-0.31-0.78-0.61-1.18-0.88c-0.41-0.27-0.83-0.52-1.26-0.75c-0.44-0.23-0.88-0.44-1.33-0.63c-0.45-0.18-0.92-0.35-1.38-0.49
	c-0.47-0.15-0.95-0.27-1.43-0.36c-0.48-0.1-0.97-0.17-1.46-0.22c-0.97-0.1-1.97-0.1-2.95,0c-0.48,0.05-0.97,0.12-1.45,0.22
	c-0.48,0.09-0.96,0.21-1.43,0.36c-0.46,0.14-0.93,0.31-1.38,0.49c-0.45,0.19-0.89,0.4-1.32,0.63c-0.44,0.23-0.86,0.48-1.27,0.75
	c-0.4,0.27-0.8,0.57-1.18,0.88c-0.38,0.31-0.75,0.64-1.1,0.99c-0.34,0.34-0.68,0.71-0.99,1.09c-0.31,0.38-0.6,0.78-0.87,1.19
	c-0.27,0.4-0.53,0.83-0.75,1.26c-0.23,0.43-0.45,0.88-0.63,1.33c-0.19,0.45-0.36,0.91-0.5,1.38c-0.14,0.47-0.26,0.94-0.36,1.42
	c-0.09,0.48-0.17,0.97-0.22,1.46c-0.05,0.49-0.07,0.98-0.07,1.47s0.02,0.99,0.07,1.48c0.05,0.48,0.13,0.97,0.22,1.45
	c0.1,0.48,0.22,0.96,0.36,1.43c0.14,0.46,0.31,0.93,0.5,1.38c0.18,0.45,0.4,0.9,0.63,1.33c0.22,0.43,0.48,0.85,0.75,1.26
	c0.27,0.41,0.56,0.81,0.87,1.18c0.31,0.38,0.65,0.75,0.99,1.1c0.35,0.34,0.72,0.68,1.1,0.99c0.38,0.31,0.78,0.6,1.18,0.87
	c0.41,0.27,0.83,0.53,1.27,0.76c0.43,0.23,0.87,0.44,1.32,0.62c0.45,0.19,0.92,0.36,1.38,0.5c0.47,0.14,0.95,0.26,1.43,0.36
	c0.48,0.1,0.97,0.17,1.45,0.22c0.49,0.05,0.99,0.07,1.48,0.07c0.49,0,0.99-0.02,1.47-0.07c0.49-0.05,0.98-0.12,1.46-0.22
	c0.48-0.1,0.96-0.22,1.43-0.36c0.46-0.14,0.93-0.31,1.38-0.5c0.45-0.18,0.89-0.39,1.32-0.62c0.44-0.23,0.86-0.49,1.27-0.76
	c0.4-0.27,0.8-0.56,1.18-0.87c0.38-0.31,0.75-0.65,1.09-0.99c0.35-0.35,0.68-0.72,1-1.1c0.3-0.37,0.6-0.77,0.87-1.18
	c0.27-0.41,0.52-0.83,0.75-1.26c0.18-0.34,0.35-0.71,0.51-1.07H334.7c0.75,1.71,1.8,3.28,3.13,4.61c0.34,0.34,0.71,0.68,1.09,0.99
	c0.38,0.31,0.78,0.6,1.19,0.87c0.4,0.27,0.83,0.53,1.26,0.76c0.43,0.23,0.87,0.44,1.32,0.62c0.46,0.19,0.92,0.36,1.39,0.5
	c0.46,0.14,0.94,0.26,1.42,0.36c0.48,0.1,0.97,0.17,1.46,0.22s0.98,0.07,1.47,0.07s0.99-0.02,1.48-0.07
	c0.48-0.05,0.97-0.12,1.45-0.22c0.48-0.1,0.96-0.22,1.43-0.36c0.46-0.14,0.93-0.31,1.38-0.5c0.45-0.18,0.9-0.39,1.33-0.62
	c0.43-0.23,0.85-0.49,1.26-0.76c0.41-0.27,0.81-0.56,1.18-0.87c0.38-0.31,0.75-0.65,1.1-0.99c0.35-0.35,0.68-0.72,0.99-1.1
	c0.31-0.37,0.6-0.77,0.87-1.18c0.27-0.41,0.53-0.83,0.76-1.26c0.22-0.43,0.44-0.88,0.62-1.33c0.19-0.45,0.36-0.92,0.5-1.38
	c0.14-0.47,0.26-0.95,0.36-1.43c0.09-0.48,0.17-0.97,0.22-1.45c0.05-0.49,0.07-0.99,0.07-1.48S363.41,347.45,363.36,346.96z"/>
</svg>
